<?xml version="1.0" encoding="iso-8859-1"?>
<!-- Uploaded to: SVG Repo, www.svgrepo.com, Generator: SVG Repo Mixer Tools -->
<!DOCTYPE svg PUBLIC "-//W3C//DTD SVG 1.1//EN" "http://www.w3.org/Graphics/SVG/1.1/DTD/svg11.dtd">
<svg fill="#000000" height="800px" width="800px" version="1.1" id="Capa_1" xmlns="http://www.w3.org/2000/svg" xmlns:xlink="http://www.w3.org/1999/xlink" 
	 viewBox="0 0 481.668 481.668" xml:space="preserve">
<g>
	<path d="M112.957,397.322c-10.541,0-19.117,8.576-19.117,19.117c0,10.54,8.576,19.115,19.117,19.115
		c10.539,0,19.113-8.575,19.113-19.115C132.07,405.898,123.496,397.322,112.957,397.322z"/>
	<path d="M373.428,397.322c-10.541,0-19.117,8.576-19.117,19.117c0,10.54,8.576,19.115,19.117,19.115
		c10.539,0,19.113-8.575,19.113-19.115C392.541,405.898,383.967,397.322,373.428,397.322z"/>
	<path d="M340.324,328.984h68.565c3.866,0,7-3.134,7-7v-23.768c0-0.668-0.096-1.332-0.284-1.973l-18.318-62.353
		c-0.875-2.98-3.609-5.026-6.716-5.026h-50.246c-3.866,0-7,3.134-7,7v86.119C333.324,325.851,336.458,328.984,340.324,328.984z
		 M347.324,314.984v-45.842l54.565,30.816v15.025H347.324z"/>
	<path d="M55.383,328.984h242.86c3.866,0,7-3.134,7-7v-86.119c0-3.866-3.134-7-7-7H55.383c-3.866,0-7,3.134-7,7v86.119
		C48.383,325.851,51.517,328.984,55.383,328.984z M62.383,250.291l213.86,64.693H62.383V250.291z"/>
	<path d="M480.238,367.965c-1.324-1.739-3.385-2.761-5.57-2.761H472.1l-44.92-155.585h25.967c0.521,0,1.028-0.062,1.518-0.17
		c3.208-0.638,5.627-3.467,5.627-6.863c0-8.756-2.925-17.238-8.164-24.119c5.24-6.883,8.166-15.367,8.166-24.121
		c0-3.866-3.134-7-7-7c-0.024,0-0.049,0.004-0.073,0.004c-0.024,0-0.049-0.004-0.073-0.004h-148.94v-16.632
		c6.441-1.022,12.869-2.123,19.272-3.324c16.525-3.1,29.967-13.258,37.823-26.763c4.346-0.981,8.686-1.991,13.018-3.055
		c18.282-4.485,29.508-23.011,25.022-41.298c-3.762-15.313-17.392-26.008-33.147-26.008c-2.733,0-5.475,0.332-8.152,0.988
		c-2.04,0.501-4.084,0.983-6.129,1.46c-10.084-9.762-23.778-15.67-38.635-15.67c-3.44,0-6.91,0.323-10.316,0.963
		c-35.804,6.715-72.403,10.119-108.78,10.119c-28.337,0-57.018-2.07-85.248-6.154c-2.653-0.384-5.348-0.577-8.011-0.577
		c-14.308,0-27.579,5.583-37.57,14.774c-2.661-0.553-5.319-1.12-7.976-1.707c-2.434-0.538-4.923-0.812-7.398-0.812
		c-15.871,0-29.879,11.265-33.308,26.784c-1.968,8.904-0.35,18.043,4.556,25.731c4.906,7.688,12.513,13.006,21.417,14.973
		c3.794,0.839,7.594,1.64,11.396,2.417c1.278,2.346,2.729,4.618,4.356,6.797c8.896,11.906,21.897,19.636,36.607,21.763
		c5.646,0.816,11.31,1.56,16.982,2.24v12.989H7c-3.866,0-7,3.134-7,7v48.273c0,3.866,3.134,7,7,7h7.899v171.375H7
		c-3.866,0-7,3.134-7,7v28.445c0,3.866,3.134,7,7,7h14.899h23.613h19.774c3.401,23.262,23.479,41.184,47.671,41.184
		c24.189,0,44.267-17.922,47.667-41.184h165.133c3.401,23.262,23.479,41.184,47.671,41.184c24.189,0,44.267-17.922,47.667-41.184
		h32.579c0.004,0,0.008-0.001,0.012-0.001h8.76c3.148,0,5.909-2.102,6.747-5.136l12.223-44.234
		C481.997,371.962,481.561,369.704,480.238,367.965z M385.746,59.611c2.647,10.788-3.977,21.718-14.763,24.365
		c-1.149,0.282-2.304,0.542-3.454,0.818c1.602-7.144,1.816-14.715,0.384-22.354c-1.19-6.341-3.436-12.255-6.522-17.591
		c1.581-0.388,3.198-0.583,4.806-0.583C375.487,44.267,383.527,50.577,385.746,59.611z M43.666,87.47
		c-5.254-1.161-9.741-4.298-12.636-8.834c-2.894-4.535-3.849-9.926-2.688-15.18c2.023-9.157,10.282-15.805,19.638-15.805
		c1.46,0,5.047,0.623,5.382,0.696c-3.771,6.205-6.374,13.211-7.462,20.731c-0.927,6.409-0.74,12.808,0.498,18.974
		C45.488,87.855,44.576,87.671,43.666,87.47z M67.612,101.973c-6.658-8.911-9.448-19.881-7.856-30.889
		c2.944-20.346,20.643-35.688,41.169-35.688c1.996,0,4.019,0.146,6.009,0.433c28.889,4.18,58.244,6.299,87.25,6.299
		c37.241,0,74.708-3.485,111.361-10.359c2.558-0.479,5.16-0.723,7.735-0.723c19.989,0,37.179,14.289,40.873,33.977
		c4.232,22.569-10.685,44.375-33.254,48.608c-41.711,7.822-84.34,11.789-126.702,11.789c-32.976,0-66.348-2.408-99.187-7.158
		C84.001,116.668,74.271,110.884,67.612,101.973z M123.988,135.899c23.386,2.337,46.894,3.52,70.209,3.52
		c32.019,0,64.185-2.227,96.01-6.622v14.549H123.988V135.899z M14,185.467h406.02c3.866,0,7-3.134,7-7s-3.134-7-7-7H14v-10.121
		h431.313c-1.288,4.551-3.808,8.719-7.34,11.971c-2.845,2.618-3.028,7.047-0.41,9.891c0.084,0.092,0.176,0.172,0.264,0.257
		c0.052,0.052,0.09,0.101,0.147,0.154c3.54,3.257,6.063,7.437,7.347,12.001h-27.447H21.899H14V185.467z M28.899,209.619h383.71
		l44.921,155.585h-30.51c-3.866,0-7,3.134-7,7v15.912c-9.584-15.708-26.883-26.218-46.592-26.218
		c-27.703,0-50.632,20.764-54.08,47.541H167.031c-3.448-26.777-26.374-47.541-54.074-47.541c-27.702,0-50.63,20.764-54.078,47.541
		h-6.367v-21.445c0-3.866-3.134-7-7-7H28.899V209.619z M14,394.994h24.512v14.445H14V394.994z M112.957,450.623
		c-18.85,0-34.186-15.335-34.186-34.184c0-18.849,15.336-34.184,34.186-34.184c18.848,0,34.182,15.335,34.182,34.184
		C147.139,435.288,131.805,450.623,112.957,450.623z M373.428,450.623c-18.85,0-34.186-15.335-34.186-34.184
		c0-18.849,15.336-34.184,34.186-34.184c18.848,0,34.182,15.335,34.182,34.184C407.609,435.288,392.275,450.623,373.428,450.623z
		 M457.117,409.438H434.02v-30.234h31.452L457.117,409.438z"/>
</g>
</svg>